<svg xmlns="http://www.w3.org/2000/svg" xmlns:xlink="http://www.w3.org/1999/xlink" width="52.978" height="53.086" viewBox="0 0 52.978 53.086">
  <defs>
    <clipPath id="clip-path">
      <rect id="Rectangle_8281" data-name="Rectangle 8281" width="52.978" height="53.085" fill="#d1f1ff"/>
    </clipPath>
  </defs>
  <g id="Group_22487" data-name="Group 22487" transform="translate(-159 -531)">
    <g id="Mask_Group_50" data-name="Mask Group 50" transform="translate(159 531)" clip-path="url(#clip-path)">
      <g id="Group_8985" data-name="Group 8985">
        <g id="Group_8984" data-name="Group 8984" clip-path="url(#clip-path)">
          <g id="Group_8983" data-name="Group 8983" style="mix-blend-mode: multiply;isolation: isolate">
            <g id="Group_8982" data-name="Group 8982">
              <g id="Group_8981" data-name="Group 8981" clip-path="url(#clip-path)">
                <path id="Path_10545" data-name="Path 10545" d="M52.62,27.2c1.1,4.814-.43,9.934-3.189,13.936a27.286,27.286,0,0,1-3.342,4.055c-6.317,6.43-15.793,9.7-24.617,6.866A32.325,32.325,0,0,1,2.672,35.3a33.8,33.8,0,0,1-1.9-4.813C-4.235,13.607,16.135,3.8,29.533.317,36.94-1.643,42.06,5.873,45.65,11.612c1.084,1.779,2.073,3.622,2.99,5.452S50.4,20.71,51.2,22.435A26.386,26.386,0,0,1,52.62,27.2" transform="translate(0 0)" fill="#d1f1ff"/>
              </g>
            </g>
          </g>
        </g>
      </g>
    </g>
    <g id="Group_22443" data-name="Group 22443" transform="translate(168.511 540.339)">
      <rect id="Rectangle_14589" data-name="Rectangle 14589" width="38.04" height="38.04" transform="translate(0 0)" fill="none"/>
      <g id="Group_22441" data-name="Group 22441" transform="translate(3.079 2.825)">
        <path id="Path_19198" data-name="Path 19198" d="M9.621,746.674a12.939,12.939,0,0,0,1.747-.121,16.891,16.891,0,0,0,9.492-4.937c5.659-5.659,6.718-13.807,2.362-18.163s-12.5-3.3-18.163,2.362a16.891,16.891,0,0,0-4.937,9.492A10.014,10.014,0,0,0,2.7,743.978a9.571,9.571,0,0,0,6.924,2.7m6.67-24.751a8.433,8.433,0,0,1,6.105,2.354,8.878,8.878,0,0,1,2.244,7.689,15.725,15.725,0,0,1-4.606,8.825A15.724,15.724,0,0,1,11.21,745.4a8.878,8.878,0,0,1-7.689-2.244,8.878,8.878,0,0,1-2.244-7.689,15.724,15.724,0,0,1,4.606-8.824,15.723,15.723,0,0,1,8.825-4.606,11.734,11.734,0,0,1,1.583-.11" transform="translate(5.976 -714.284)" stroke="#000" stroke-width="0.6"/>
        <path id="Path_19199" data-name="Path 19199" d="M1445.572,1321.669a4.693,4.693,0,0,0,3.237-1.446,4.863,4.863,0,0,0,1.414-2.7,2.85,2.85,0,0,0-3.377-3.378,4.87,4.87,0,0,0-2.7,1.414c-1.64,1.64-1.927,4.022-.641,5.308a2.874,2.874,0,0,0,2.072.805m1.8-6.4a1.722,1.722,0,0,1,1.249.47,1.848,1.848,0,0,1,.443,1.614,3.7,3.7,0,0,1-1.083,2.045c-1.186,1.185-2.827,1.472-3.659.641s-.545-2.474.641-3.659a3.7,3.7,0,0,1,2.044-1.084,2.652,2.652,0,0,1,.365-.027" transform="translate(-1431.361 -1302.278)" stroke="#000" stroke-width="0.6"/>
        <path id="Path_19200" data-name="Path 19200" d="M596.23,2171a4.693,4.693,0,0,0,3.237-1.446,4.865,4.865,0,0,0,1.414-2.7,2.851,2.851,0,0,0-3.378-3.378,4.866,4.866,0,0,0-2.7,1.414c-1.64,1.64-1.928,4.021-.641,5.308a2.873,2.873,0,0,0,2.072.805m1.8-6.4a1.725,1.725,0,0,1,1.249.47,1.849,1.849,0,0,1,.443,1.614,3.7,3.7,0,0,1-1.084,2.044c-1.185,1.185-2.826,1.473-3.658.641s-.545-2.474.641-3.659a3.7,3.7,0,0,1,2.044-1.083,2.6,2.6,0,0,1,.365-.027" transform="translate(-574.377 -2143.968)" stroke="#000" stroke-width="0.6"/>
        <path id="Path_19201" data-name="Path 19201" d="M1653.277,2378.741a3.757,3.757,0,0,0,.536-.039,4.863,4.863,0,0,0,2.7-1.414c1.64-1.64,1.927-4.021.64-5.308s-3.668-1-5.309.64a4.869,4.869,0,0,0-1.414,2.7,2.983,2.983,0,0,0,.773,2.6,2.859,2.859,0,0,0,2.068.813m1.8-6.413a1.73,1.73,0,0,1,1.254.476c.832.833.545,2.473-.64,3.659a3.693,3.693,0,0,1-2.045,1.083,1.692,1.692,0,0,1-2.057-2.057,3.694,3.694,0,0,1,1.084-2.044,3.551,3.551,0,0,1,2.4-1.117" transform="translate(-1640.932 -2349.841)" stroke="#000" stroke-width="0.6"/>
        <path id="Path_19202" data-name="Path 19202" d="M390.18,1115.678a3.784,3.784,0,0,0,.536-.039,4.866,4.866,0,0,0,2.7-1.414c1.64-1.64,1.928-4.021.641-5.309s-3.669-1-5.309.641a4.867,4.867,0,0,0-1.414,2.7,2.983,2.983,0,0,0,.773,2.6,2.859,2.859,0,0,0,2.068.813m3.056-5.937c.832.832.545,2.473-.641,3.659a3.7,3.7,0,0,1-2.044,1.084,1.692,1.692,0,0,1-2.057-2.057,3.7,3.7,0,0,1,1.084-2.044c1.186-1.185,2.827-1.472,3.659-.641" transform="translate(-366.469 -1098.142)" stroke="#000" stroke-width="0.6"/>
        <path id="Path_19203" data-name="Path 19203" d="M285.817,366.751a.583.583,0,0,0,.412-1l-3.27-3.268a8.543,8.543,0,0,1-1.915-9.142,20.357,20.357,0,0,1,11.649-11.65,8.543,8.543,0,0,1,9.141,1.914l3.27,3.271a.584.584,0,0,0,.825-.825l-3.27-3.271a9.712,9.712,0,0,0-10.39-2.176,21.527,21.527,0,0,0-12.313,12.314,9.71,9.71,0,0,0,2.178,10.391l3.27,3.268a.581.581,0,0,0,.412.171" transform="translate(-276.732 -336.886)" stroke="#000" stroke-width="0.6"/>
        <path id="Path_19204" data-name="Path 19204" d="M1727.32,16.168a.583.583,0,0,0,.412-1l-1.07-1.071A7.579,7.579,0,1,1,1737.38,3.383l1.28,1.28a.583.583,0,1,0,.825-.825l-1.28-1.28a8.746,8.746,0,0,0-12.369,12.369L1726.907,16a.582.582,0,0,0,.413.171" transform="translate(-1723.28 0)" stroke="#000" stroke-width="0.6"/>
      </g>
    </g>
  </g>
</svg>
